<svg width="68" height="106" viewBox="0 0 68 106" fill="none" xmlns="http://www.w3.org/2000/svg">
<path d="M46 12C46 18.6274 40.6274 37.5 34 37.5C27.3726 37.5 22 18.6274 22 12C22 5.37258 27.3726 0 34 0C40.6274 0 46 5.37258 46 12Z" fill="#43BC53"/>
<circle cx="34" cy="12" r="7" fill="white"/>
<rect y="41" width="68" height="65" rx="5" fill="#43BC53"/>
<path d="M15.0272 50.0298C14.9448 49.7713 14.834 49.5398 14.6948 49.3352C14.5584 49.1278 14.3951 48.9517 14.2047 48.8068C14.0144 48.6591 13.7971 48.5469 13.5527 48.4702C13.3113 48.3935 13.0456 48.3551 12.7559 48.3551C12.2644 48.3551 11.8212 48.4815 11.4263 48.7344C11.0314 48.9872 10.7189 49.358 10.4888 49.8466C10.2615 50.3324 10.1479 50.9276 10.1479 51.6321C10.1479 52.3395 10.263 52.9375 10.4931 53.4261C10.7232 53.9148 11.0385 54.2855 11.4391 54.5384C11.8397 54.7912 12.2956 54.9176 12.807 54.9176C13.2814 54.9176 13.6948 54.821 14.0471 54.6278C14.4022 54.4347 14.6763 54.1619 14.8695 53.8097C15.0655 53.4545 15.1635 53.0369 15.1635 52.5568L15.5044 52.6207H13.0073V51.5341H16.4377V52.527C16.4377 53.2599 16.2814 53.8963 15.9689 54.4361C15.6593 54.973 15.2303 55.3878 14.682 55.6804C14.1365 55.973 13.5115 56.1193 12.807 56.1193C12.0172 56.1193 11.324 55.9375 10.7275 55.5739C10.1337 55.2102 9.67063 54.6946 9.33825 54.027C9.00586 53.3565 8.83967 52.5611 8.83967 51.6406C8.83967 50.9446 8.93626 50.3196 9.12944 49.7656C9.32262 49.2116 9.59393 48.7415 9.94336 48.3551C10.2956 47.9659 10.709 47.669 11.1834 47.4645C11.6607 47.2571 12.182 47.1534 12.7473 47.1534C13.2189 47.1534 13.6578 47.223 14.0641 47.3622C14.4732 47.5014 14.8368 47.6989 15.155 47.9545C15.476 48.2102 15.7417 48.5142 15.9519 48.8665C16.1621 49.2159 16.3042 49.6037 16.378 50.0298H15.0272ZM18.0069 56V49.4545H19.2385V50.4943H19.3066C19.426 50.142 19.6362 49.8651 19.9373 49.6634C20.2413 49.4588 20.585 49.3565 20.9686 49.3565C21.0481 49.3565 21.1419 49.3594 21.2498 49.3651C21.3606 49.3707 21.4473 49.3778 21.5098 49.3864V50.6051C21.4586 50.5909 21.3677 50.5753 21.237 50.5582C21.1064 50.5384 20.9757 50.5284 20.845 50.5284C20.5439 50.5284 20.2754 50.5923 20.0396 50.7202C19.8066 50.8452 19.622 51.0199 19.4856 51.2443C19.3493 51.4659 19.2811 51.7187 19.2811 52.0028V56H18.0069ZM25.1351 56.1321C24.5215 56.1321 23.986 55.9915 23.5286 55.7102C23.0712 55.429 22.7161 55.0355 22.4632 54.5298C22.2104 54.0241 22.084 53.4332 22.084 52.7571C22.084 52.0781 22.2104 51.4844 22.4632 50.9759C22.7161 50.4673 23.0712 50.0724 23.5286 49.7912C23.986 49.5099 24.5215 49.3693 25.1351 49.3693C25.7488 49.3693 26.2843 49.5099 26.7417 49.7912C27.199 50.0724 27.5542 50.4673 27.807 50.9759C28.0598 51.4844 28.1863 52.0781 28.1863 52.7571C28.1863 53.4332 28.0598 54.0241 27.807 54.5298C27.5542 55.0355 27.199 55.429 26.7417 55.7102C26.2843 55.9915 25.7488 56.1321 25.1351 56.1321ZM25.1394 55.0625C25.5371 55.0625 25.8667 54.9574 26.128 54.7472C26.3894 54.5369 26.5826 54.2571 26.7076 53.9077C26.8354 53.5582 26.8993 53.1733 26.8993 52.7528C26.8993 52.3352 26.8354 51.9517 26.7076 51.6023C26.5826 51.25 26.3894 50.9673 26.128 50.7543C25.8667 50.5412 25.5371 50.4347 25.1394 50.4347C24.7388 50.4347 24.4064 50.5412 24.1422 50.7543C23.8809 50.9673 23.6863 51.25 23.5584 51.6023C23.4334 51.9517 23.3709 52.3352 23.3709 52.7528C23.3709 53.1733 23.4334 53.5582 23.5584 53.9077C23.6863 54.2571 23.8809 54.5369 24.1422 54.7472C24.4064 54.9574 24.7388 55.0625 25.1394 55.0625ZM32.4295 56.1321C31.7846 56.1321 31.2292 55.9943 30.7633 55.7188C30.3002 55.4403 29.9423 55.0497 29.6895 54.5469C29.4395 54.0412 29.3145 53.4489 29.3145 52.7699C29.3145 52.0994 29.4395 51.5085 29.6895 50.9972C29.9423 50.4858 30.2946 50.0866 30.7463 49.7997C31.2008 49.5128 31.7321 49.3693 32.34 49.3693C32.7093 49.3693 33.0673 49.4304 33.4139 49.5526C33.7605 49.6747 34.0716 49.8665 34.3471 50.1278C34.6227 50.3892 34.84 50.7287 34.9991 51.1463C35.1582 51.5611 35.2377 52.0653 35.2377 52.6591V53.1108H30.0346V52.1562H33.9892C33.9892 51.821 33.921 51.5241 33.7846 51.2656C33.6483 51.0043 33.4565 50.7983 33.2093 50.6477C32.965 50.4972 32.6781 50.4219 32.3485 50.4219C31.9906 50.4219 31.6781 50.5099 31.411 50.6861C31.1468 50.8594 30.9423 51.0866 30.7974 51.3679C30.6554 51.6463 30.5843 51.9489 30.5843 52.2756V53.0213C30.5843 53.4588 30.661 53.831 30.8145 54.1378C30.9707 54.4446 31.188 54.679 31.4664 54.8409C31.7449 55 32.0701 55.0795 32.4423 55.0795C32.6838 55.0795 32.9039 55.0455 33.1028 54.9773C33.3017 54.9062 33.4735 54.8011 33.6184 54.6619C33.7633 54.5227 33.8741 54.3509 33.9508 54.1463L35.1568 54.3636C35.0602 54.7187 34.8869 55.0298 34.6369 55.2969C34.3897 55.5611 34.0787 55.767 33.7037 55.9148C33.3315 56.0597 32.9068 56.1321 32.4295 56.1321ZM37.9256 52.1136V56H36.6515V49.4545H37.8745V50.5199H37.9554C38.106 50.1733 38.3418 49.8949 38.6628 49.6847C38.9867 49.4744 39.3944 49.3693 39.8858 49.3693C40.3319 49.3693 40.7225 49.4631 41.0577 49.6506C41.3929 49.8352 41.6529 50.1108 41.8375 50.4773C42.0222 50.8437 42.1145 51.2969 42.1145 51.8366V56H40.8404V51.9901C40.8404 51.5156 40.7168 51.1449 40.4696 50.8778C40.2225 50.608 39.883 50.473 39.4512 50.473C39.1557 50.473 38.8929 50.5369 38.6628 50.6648C38.4355 50.7926 38.2551 50.9801 38.1216 51.2273C37.9909 51.4716 37.9256 51.767 37.9256 52.1136ZM48.7282 51.0526L47.5733 51.2571C47.525 51.1094 47.4483 50.9687 47.3432 50.8352C47.2409 50.7017 47.1017 50.5923 46.9256 50.5071C46.7495 50.4219 46.5293 50.3793 46.2651 50.3793C45.9043 50.3793 45.6032 50.4602 45.3617 50.6222C45.1202 50.7812 44.9995 50.9872 44.9995 51.2401C44.9995 51.4588 45.0804 51.6349 45.2424 51.7685C45.4043 51.902 45.6657 52.0114 46.0265 52.0966L47.0662 52.3352C47.6685 52.4744 48.1174 52.6889 48.4128 52.9787C48.7083 53.2685 48.856 53.6449 48.856 54.108C48.856 54.5 48.7424 54.8494 48.5151 55.1562C48.2907 55.4602 47.9767 55.6989 47.5733 55.8722C47.1728 56.0455 46.7083 56.1321 46.1799 56.1321C45.4469 56.1321 44.8489 55.9759 44.3858 55.6634C43.9228 55.348 43.6387 54.9006 43.5336 54.321L44.7651 54.1335C44.8418 54.4545 44.9995 54.6974 45.2381 54.8622C45.4767 55.0241 45.7878 55.1051 46.1713 55.1051C46.589 55.1051 46.9228 55.0185 47.1728 54.8452C47.4228 54.669 47.5478 54.4545 47.5478 54.2017C47.5478 53.9972 47.4711 53.8253 47.3176 53.6861C47.1671 53.5469 46.9355 53.4418 46.623 53.3707L45.5151 53.1278C44.9043 52.9886 44.4526 52.767 44.16 52.4631C43.8702 52.1591 43.7253 51.7741 43.7253 51.3082C43.7253 50.9219 43.8333 50.5838 44.0492 50.294C44.2651 50.0043 44.5634 49.7784 44.9441 49.6165C45.3248 49.4517 45.7608 49.3693 46.2523 49.3693C46.9597 49.3693 47.5165 49.5227 47.9228 49.8295C48.329 50.1335 48.5975 50.5412 48.7282 51.0526ZM53.3123 49.4545V50.4773H49.737V49.4545H53.3123ZM50.6958 47.8864H51.97V54.0781C51.97 54.3253 52.0069 54.5114 52.0808 54.6364C52.1547 54.7585 52.2498 54.8423 52.3663 54.8878C52.4856 54.9304 52.6149 54.9517 52.7541 54.9517C52.8564 54.9517 52.9458 54.9446 53.0225 54.9304C53.0993 54.9162 53.1589 54.9048 53.2015 54.8963L53.4316 55.9489C53.3578 55.9773 53.2527 56.0057 53.1163 56.0341C52.9799 56.0653 52.8095 56.0824 52.6049 56.0852C52.2697 56.0909 51.9572 56.0312 51.6674 55.9062C51.3777 55.7812 51.1433 55.5881 50.9643 55.3267C50.7853 55.0653 50.6958 54.7372 50.6958 54.3423V47.8864ZM57.4725 56.1321C56.8276 56.1321 56.2722 55.9943 55.8063 55.7188C55.3432 55.4403 54.9853 55.0497 54.7324 54.5469C54.4824 54.0412 54.3574 53.4489 54.3574 52.7699C54.3574 52.0994 54.4824 51.5085 54.7324 50.9972C54.9853 50.4858 55.3375 50.0866 55.7892 49.7997C56.2438 49.5128 56.775 49.3693 57.383 49.3693C57.7523 49.3693 58.1103 49.4304 58.4569 49.5526C58.8034 49.6747 59.1145 49.8665 59.3901 50.1278C59.6657 50.3892 59.883 50.7287 60.0421 51.1463C60.2012 51.5611 60.2807 52.0653 60.2807 52.6591V53.1108H55.0776V52.1562H59.0321C59.0321 51.821 58.964 51.5241 58.8276 51.2656C58.6912 51.0043 58.4995 50.7983 58.2523 50.6477C58.008 50.4972 57.7211 50.4219 57.3915 50.4219C57.0336 50.4219 56.7211 50.5099 56.454 50.6861C56.1898 50.8594 55.9853 51.0866 55.8404 51.3679C55.6983 51.6463 55.6273 51.9489 55.6273 52.2756V53.0213C55.6273 53.4588 55.704 53.831 55.8574 54.1378C56.0137 54.4446 56.231 54.679 56.5094 54.8409C56.7878 55 57.1131 55.0795 57.4853 55.0795C57.7267 55.0795 57.9469 55.0455 58.1458 54.9773C58.3446 54.9062 58.5165 54.8011 58.6614 54.6619C58.8063 54.5227 58.9171 54.3509 58.9938 54.1463L60.1998 54.3636C60.1032 54.7187 59.9299 55.0298 59.6799 55.2969C59.4327 55.5611 59.1216 55.767 58.7466 55.9148C58.3745 56.0597 57.9498 56.1321 57.4725 56.1321ZM16.6593 73.4545V64.4545H17.9036V65.5156H18.0101C18.084 65.3793 18.1905 65.2216 18.3297 65.0426C18.4689 64.8636 18.6621 64.7074 18.9093 64.5739C19.1564 64.4375 19.4831 64.3693 19.8894 64.3693C20.4178 64.3693 20.8894 64.5028 21.3042 64.7699C21.7189 65.0369 22.0442 65.4219 22.28 65.9247C22.5186 66.4276 22.638 67.0327 22.638 67.7401C22.638 68.4474 22.5201 69.054 22.2843 69.5597C22.0485 70.0625 21.7246 70.4503 21.3127 70.723C20.9007 70.9929 20.4306 71.1278 19.9022 71.1278C19.5044 71.1278 19.1792 71.0611 18.9263 70.9276C18.6763 70.794 18.4803 70.6378 18.3382 70.4588C18.1962 70.2798 18.0868 70.1207 18.0101 69.9815H17.9334V73.4545H16.6593ZM17.9078 67.7273C17.9078 68.1875 17.9746 68.5909 18.1081 68.9375C18.2417 69.2841 18.4348 69.5554 18.6877 69.7514C18.9405 69.9446 19.2502 70.0412 19.6167 70.0412C19.9973 70.0412 20.3155 69.9403 20.5712 69.7386C20.8269 69.5341 21.0201 69.2571 21.1507 68.9077C21.2843 68.5582 21.351 68.1648 21.351 67.7273C21.351 67.2955 21.2857 66.9077 21.155 66.5639C21.0272 66.2202 20.834 65.9489 20.5755 65.75C20.3198 65.5511 20.0002 65.4517 19.6167 65.4517C19.2473 65.4517 18.9348 65.5469 18.6792 65.7372C18.4263 65.9276 18.2346 66.1932 18.1039 66.5341C17.9732 66.875 17.9078 67.2727 17.9078 67.7273ZM25.9703 71.1449C25.5556 71.1449 25.1806 71.0682 24.8453 70.9148C24.5101 70.7585 24.2445 70.5327 24.0485 70.2372C23.8553 69.9418 23.7587 69.5795 23.7587 69.1506C23.7587 68.7812 23.8297 68.4773 23.9718 68.2386C24.1138 68 24.3056 67.8111 24.5471 67.6719C24.7885 67.5327 25.0584 67.4276 25.3567 67.3565C25.655 67.2855 25.959 67.2315 26.2686 67.1946C26.6607 67.1491 26.9789 67.1122 27.2232 67.0838C27.4675 67.0526 27.6451 67.0028 27.7559 66.9347C27.8667 66.8665 27.9221 66.7557 27.9221 66.6023V66.5724C27.9221 66.2003 27.8169 65.9119 27.6067 65.7074C27.3993 65.5028 27.0897 65.4006 26.6777 65.4006C26.2488 65.4006 25.9107 65.4957 25.6635 65.6861C25.4192 65.8736 25.2502 66.0824 25.1564 66.3125L23.959 66.0398C24.101 65.642 24.3084 65.321 24.5811 65.0767C24.8567 64.8295 25.1735 64.6506 25.5314 64.5398C25.8894 64.4261 26.2658 64.3693 26.6607 64.3693C26.9221 64.3693 27.199 64.4006 27.4917 64.4631C27.7871 64.5227 28.0627 64.6335 28.3184 64.7955C28.5769 64.9574 28.7885 65.1889 28.9533 65.4901C29.1181 65.7884 29.2005 66.1761 29.2005 66.6534V71H27.9561V70.1051H27.905C27.8226 70.2699 27.699 70.4318 27.5343 70.5909C27.3695 70.75 27.1578 70.8821 26.8993 70.9872C26.6408 71.0923 26.3311 71.1449 25.9703 71.1449ZM26.2473 70.1222C26.5996 70.1222 26.9007 70.0526 27.1507 69.9134C27.4036 69.7741 27.5953 69.5923 27.726 69.3679C27.8596 69.1406 27.9263 68.8977 27.9263 68.6392V67.7955C27.8809 67.8409 27.7928 67.8835 27.6621 67.9233C27.5343 67.9602 27.388 67.9929 27.2232 68.0213C27.0584 68.0469 26.8979 68.071 26.7417 68.0938C26.5854 68.1136 26.4547 68.1307 26.3496 68.1449C26.1025 68.1761 25.8766 68.2287 25.6721 68.3026C25.4703 68.3764 25.3084 68.483 25.1863 68.6222C25.0669 68.7585 25.0073 68.9403 25.0073 69.1676C25.0073 69.483 25.1238 69.7216 25.3567 69.8835C25.5897 70.0426 25.8865 70.1222 26.2473 70.1222ZM32.8024 71.1449C32.3876 71.1449 32.0126 71.0682 31.6774 70.9148C31.3422 70.7585 31.0765 70.5327 30.8805 70.2372C30.6873 69.9418 30.5907 69.5795 30.5907 69.1506C30.5907 68.7812 30.6618 68.4773 30.8038 68.2386C30.9458 68 31.1376 67.8111 31.3791 67.6719C31.6206 67.5327 31.8904 67.4276 32.1887 67.3565C32.487 67.2855 32.791 67.2315 33.1007 67.1946C33.4927 67.1491 33.8109 67.1122 34.0552 67.0838C34.2995 67.0526 34.4771 67.0028 34.5879 66.9347C34.6987 66.8665 34.7541 66.7557 34.7541 66.6023V66.5724C34.7541 66.2003 34.649 65.9119 34.4387 65.7074C34.2314 65.5028 33.9217 65.4006 33.5098 65.4006C33.0808 65.4006 32.7427 65.4957 32.4956 65.6861C32.2512 65.8736 32.0822 66.0824 31.9885 66.3125L30.791 66.0398C30.9331 65.642 31.1404 65.321 31.4132 65.0767C31.6887 64.8295 32.0055 64.6506 32.3635 64.5398C32.7214 64.4261 33.0978 64.3693 33.4927 64.3693C33.7541 64.3693 34.0311 64.4006 34.3237 64.4631C34.6191 64.5227 34.8947 64.6335 35.1504 64.7955C35.4089 64.9574 35.6206 65.1889 35.7853 65.4901C35.9501 65.7884 36.0325 66.1761 36.0325 66.6534V71H34.7882V70.1051H34.737C34.6547 70.2699 34.5311 70.4318 34.3663 70.5909C34.2015 70.75 33.9899 70.8821 33.7314 70.9872C33.4728 71.0923 33.1632 71.1449 32.8024 71.1449ZM33.0794 70.1222C33.4316 70.1222 33.7328 70.0526 33.9828 69.9134C34.2356 69.7741 34.4274 69.5923 34.5581 69.3679C34.6916 69.1406 34.7583 68.8977 34.7583 68.6392V67.7955C34.7129 67.8409 34.6248 67.8835 34.4941 67.9233C34.3663 67.9602 34.22 67.9929 34.0552 68.0213C33.8904 68.0469 33.7299 68.071 33.5737 68.0938C33.4174 68.1136 33.2868 68.1307 33.1816 68.1449C32.9345 68.1761 32.7086 68.2287 32.5041 68.3026C32.3024 68.3764 32.1404 68.483 32.0183 68.6222C31.899 68.7585 31.8393 68.9403 31.8393 69.1676C31.8393 69.483 31.9558 69.7216 32.1887 69.8835C32.4217 70.0426 32.7186 70.1222 33.0794 70.1222ZM39.0037 62.2727V71H37.7296V62.2727H39.0037ZM43.8936 71V64.4545H45.1678V71H43.8936ZM44.5371 63.4446C44.3155 63.4446 44.1252 63.3707 43.9661 63.223C43.8098 63.0724 43.7317 62.8935 43.7317 62.6861C43.7317 62.4759 43.8098 62.2969 43.9661 62.1491C44.1252 61.9986 44.3155 61.9233 44.5371 61.9233C44.7587 61.9233 44.9476 61.9986 45.1039 62.1491C45.263 62.2969 45.3425 62.4759 45.3425 62.6861C45.3425 62.8935 45.263 63.0724 45.1039 63.223C44.9476 63.3707 44.7587 63.4446 44.5371 63.4446ZM48.1561 67.1136V71H46.8819V64.4545H48.1049V65.5199H48.1859C48.3365 65.1733 48.5723 64.8949 48.8933 64.6847C49.2172 64.4744 49.6248 64.3693 50.1163 64.3693C50.5623 64.3693 50.9529 64.4631 51.2882 64.6506C51.6234 64.8352 51.8833 65.1108 52.068 65.4773C52.2527 65.8437 52.345 66.2969 52.345 66.8366V71H51.0708V66.9901C51.0708 66.5156 50.9473 66.1449 50.7001 65.8778C50.4529 65.608 50.1135 65.473 49.6816 65.473C49.3862 65.473 49.1234 65.5369 48.8933 65.6648C48.666 65.7926 48.4856 65.9801 48.3521 66.2273C48.2214 66.4716 48.1561 66.767 48.1561 67.1136ZM23.7912 86.1278C23.2628 86.1278 22.7912 85.9929 22.3764 85.723C21.9645 85.4503 21.6406 85.0625 21.4048 84.5597C21.1719 84.054 21.0554 83.4474 21.0554 82.7401C21.0554 82.0327 21.1733 81.4276 21.4091 80.9247C21.6477 80.4219 21.9744 80.0369 22.3892 79.7699C22.804 79.5028 23.2741 79.3693 23.7997 79.3693C24.206 79.3693 24.5327 79.4375 24.7798 79.5739C25.0298 79.7074 25.223 79.8636 25.3594 80.0426C25.4986 80.2216 25.6065 80.3793 25.6832 80.5156H25.7599V77.2727H27.0341V86H25.7898V84.9815H25.6832C25.6065 85.1207 25.4957 85.2798 25.3509 85.4588C25.2088 85.6378 25.0128 85.794 24.7628 85.9276C24.5128 86.0611 24.1889 86.1278 23.7912 86.1278ZM24.0724 85.0412C24.4389 85.0412 24.7486 84.9446 25.0014 84.7514C25.2571 84.5554 25.4503 84.2841 25.581 83.9375C25.7145 83.5909 25.7812 83.1875 25.7812 82.7273C25.7812 82.2727 25.7159 81.875 25.5852 81.5341C25.4545 81.1932 25.2628 80.9276 25.0099 80.7372C24.7571 80.5469 24.4446 80.4517 24.0724 80.4517C23.6889 80.4517 23.3693 80.5511 23.1136 80.75C22.858 80.9489 22.6648 81.2202 22.5341 81.5639C22.4063 81.9077 22.3423 82.2955 22.3423 82.7273C22.3423 83.1648 22.4077 83.5582 22.5384 83.9077C22.669 84.2571 22.8622 84.5341 23.1179 84.7386C23.3764 84.9403 23.6946 85.0412 24.0724 85.0412ZM31.6737 86.1321C31.0288 86.1321 30.4734 85.9943 30.0075 85.7188C29.5444 85.4403 29.1864 85.0497 28.9336 84.5469C28.6836 84.0412 28.5586 83.4489 28.5586 82.7699C28.5586 82.0994 28.6836 81.5085 28.9336 80.9972C29.1864 80.4858 29.5387 80.0866 29.9904 79.7997C30.445 79.5128 30.9762 79.3693 31.5842 79.3693C31.9535 79.3693 32.3114 79.4304 32.658 79.5526C33.0046 79.6747 33.3157 79.8665 33.5913 80.1278C33.8668 80.3892 34.0842 80.7287 34.2433 81.1463C34.4023 81.5611 34.4819 82.0653 34.4819 82.6591V83.1108H29.2788V82.1562H33.2333C33.2333 81.821 33.1651 81.5241 33.0288 81.2656C32.8924 81.0043 32.7006 80.7983 32.4535 80.6477C32.2092 80.4972 31.9222 80.4219 31.5927 80.4219C31.2347 80.4219 30.9222 80.5099 30.6552 80.6861C30.391 80.8594 30.1864 81.0866 30.0415 81.3679C29.8995 81.6463 29.8285 81.9489 29.8285 82.2756V83.0213C29.8285 83.4588 29.9052 83.831 30.0586 84.1378C30.2148 84.4446 30.4322 84.679 30.7106 84.8409C30.989 85 31.3143 85.0795 31.6864 85.0795C31.9279 85.0795 32.1481 85.0455 32.3469 84.9773C32.5458 84.9062 32.7177 84.8011 32.8626 84.6619C33.0075 84.5227 33.1183 84.3509 33.195 84.1463L34.4009 84.3636C34.3043 84.7187 34.131 85.0298 33.881 85.2969C33.6339 85.5611 33.3228 85.767 32.9478 85.9148C32.5756 86.0597 32.1509 86.1321 31.6737 86.1321ZM35.7592 86V85.1264L39.3047 80.6222V80.5625H35.8743V79.4545H40.8942V80.3835L37.4851 84.8324V84.892H41.0135V86H35.7592ZM45.1502 86.1321C44.5053 86.1321 43.9499 85.9943 43.484 85.7188C43.021 85.4403 42.663 85.0497 42.4102 84.5469C42.1602 84.0412 42.0352 83.4489 42.0352 82.7699C42.0352 82.0994 42.1602 81.5085 42.4102 80.9972C42.663 80.4858 43.0153 80.0866 43.467 79.7997C43.9215 79.5128 44.4528 79.3693 45.0607 79.3693C45.43 79.3693 45.788 79.4304 46.1346 79.5526C46.4812 79.6747 46.7923 79.8665 47.0678 80.1278C47.3434 80.3892 47.5607 80.7287 47.7198 81.1463C47.8789 81.5611 47.9585 82.0653 47.9585 82.6591V83.1108H42.7553V82.1562H46.7099C46.7099 81.821 46.6417 81.5241 46.5053 81.2656C46.369 81.0043 46.1772 80.7983 45.93 80.6477C45.6857 80.4972 45.3988 80.4219 45.0692 80.4219C44.7113 80.4219 44.3988 80.5099 44.1317 80.6861C43.8675 80.8594 43.663 81.0866 43.5181 81.3679C43.3761 81.6463 43.305 81.9489 43.305 82.2756V83.0213C43.305 83.4588 43.3817 83.831 43.5352 84.1378C43.6914 84.4446 43.9087 84.679 44.1871 84.8409C44.4656 85 44.7908 85.0795 45.163 85.0795C45.4045 85.0795 45.6246 85.0455 45.8235 84.9773C46.0224 84.9062 46.1942 84.8011 46.3391 84.6619C46.484 84.5227 46.5948 84.3509 46.6715 84.1463L47.8775 84.3636C47.7809 84.7187 47.6076 85.0298 47.3576 85.2969C47.1104 85.5611 46.7994 85.767 46.4244 85.9148C46.0522 86.0597 45.6275 86.1321 45.1502 86.1321ZM20.837 101V94.4545H22.0685V95.4943H22.1367C22.256 95.142 22.4663 94.8651 22.7674 94.6634C23.0714 94.4588 23.4151 94.3565 23.7987 94.3565C23.8782 94.3565 23.9719 94.3594 24.0799 94.3651C24.1907 94.3707 24.2773 94.3778 24.3398 94.3864V95.6051C24.2887 95.5909 24.1978 95.5753 24.0671 95.5582C23.9364 95.5384 23.8058 95.5284 23.6751 95.5284C23.3739 95.5284 23.1055 95.5923 22.8697 95.7202C22.6367 95.8452 22.4521 96.0199 22.3157 96.2443C22.1793 96.4659 22.1112 96.7187 22.1112 97.0028V101H20.837ZM28.0291 101.132C27.3842 101.132 26.8288 100.994 26.3629 100.719C25.8999 100.44 25.5419 100.05 25.2891 99.5469C25.0391 99.0412 24.9141 98.4489 24.9141 97.7699C24.9141 97.0994 25.0391 96.5085 25.2891 95.9972C25.5419 95.4858 25.8942 95.0866 26.3459 94.7997C26.8004 94.5128 27.3317 94.3693 27.9396 94.3693C28.3089 94.3693 28.6669 94.4304 29.0135 94.5526C29.3601 94.6747 29.6712 94.8665 29.9467 95.1278C30.2223 95.3892 30.4396 95.7287 30.5987 96.1463C30.7578 96.5611 30.8374 97.0653 30.8374 97.6591V98.1108H25.6342V97.1562H29.5888C29.5888 96.821 29.5206 96.5241 29.3842 96.2656C29.2479 96.0043 29.0561 95.7983 28.8089 95.6477C28.5646 95.4972 28.2777 95.4219 27.9482 95.4219C27.5902 95.4219 27.2777 95.5099 27.0107 95.6861C26.7464 95.8594 26.5419 96.0866 26.397 96.3679C26.255 96.6463 26.1839 96.9489 26.1839 97.2756V98.0213C26.1839 98.4588 26.2607 98.831 26.4141 99.1378C26.5703 99.4446 26.7876 99.679 27.0661 99.8409C27.3445 100 27.6697 100.08 28.0419 100.08C28.2834 100.08 28.5036 100.045 28.7024 99.9773C28.9013 99.9062 29.0732 99.8011 29.218 99.6619C29.3629 99.5227 29.4737 99.3509 29.5504 99.1463L30.7564 99.3636C30.6598 99.7187 30.4865 100.03 30.2365 100.297C29.9893 100.561 29.6783 100.767 29.3033 100.915C28.9311 101.06 28.5064 101.132 28.0291 101.132ZM34.9954 103.591C34.4755 103.591 34.0281 103.523 33.6531 103.386C33.2809 103.25 32.9769 103.07 32.7411 102.845C32.5053 102.621 32.3292 102.375 32.2127 102.108L33.3079 101.656C33.3846 101.781 33.4869 101.913 33.6147 102.053C33.7454 102.195 33.9215 102.315 34.1431 102.415C34.3675 102.514 34.6559 102.564 35.0082 102.564C35.4911 102.564 35.8903 102.446 36.2056 102.21C36.521 101.977 36.6786 101.605 36.6786 101.094V99.8068H36.5977C36.521 99.946 36.4102 100.101 36.2653 100.271C36.1232 100.442 35.9272 100.589 35.6772 100.714C35.4272 100.839 35.1019 100.902 34.7013 100.902C34.1843 100.902 33.7184 100.781 33.3036 100.54C32.8917 100.295 32.565 99.9361 32.3235 99.4616C32.0849 98.9844 31.9656 98.3977 31.9656 97.7017C31.9656 97.0057 32.0835 96.4091 32.3192 95.9119C32.5579 95.4148 32.8846 95.0341 33.2994 94.7699C33.7141 94.5028 34.1843 94.3693 34.7099 94.3693C35.1161 94.3693 35.4442 94.4375 35.6942 94.5739C35.9442 94.7074 36.1388 94.8636 36.2781 95.0426C36.4201 95.2216 36.5295 95.3793 36.6062 95.5156H36.6999V94.4545H37.9485V101.145C37.9485 101.707 37.8178 102.169 37.5565 102.53C37.2951 102.891 36.9414 103.158 36.4954 103.331C36.0522 103.504 35.5522 103.591 34.9954 103.591ZM34.9826 99.8452C35.3491 99.8452 35.6587 99.7599 35.9116 99.5895C36.1673 99.4162 36.3604 99.169 36.4911 98.848C36.6246 98.5241 36.6914 98.1364 36.6914 97.6847C36.6914 97.2443 36.6261 96.8565 36.4954 96.5213C36.3647 96.1861 36.1729 95.9247 35.9201 95.7372C35.6673 95.5469 35.3548 95.4517 34.9826 95.4517C34.5991 95.4517 34.2795 95.5511 34.0238 95.75C33.7681 95.946 33.5749 96.2131 33.4442 96.5511C33.3164 96.8892 33.2525 97.267 33.2525 97.6847C33.2525 98.1136 33.3178 98.4901 33.4485 98.8139C33.5792 99.1378 33.7724 99.3906 34.0281 99.5724C34.2866 99.7543 34.6048 99.8452 34.9826 99.8452ZM39.6573 101V94.4545H40.9315V101H39.6573ZM40.3008 93.4446C40.0792 93.4446 39.8888 93.3707 39.7298 93.223C39.5735 93.0724 39.4954 92.8935 39.4954 92.6861C39.4954 92.4759 39.5735 92.2969 39.7298 92.1491C39.8888 91.9986 40.0792 91.9233 40.3008 91.9233C40.5224 91.9233 40.7113 91.9986 40.8675 92.1491C41.0266 92.2969 41.1062 92.4759 41.1062 92.6861C41.1062 92.8935 41.0266 93.0724 40.8675 93.223C40.7113 93.3707 40.5224 93.4446 40.3008 93.4446ZM45.4027 101.132C44.7891 101.132 44.2536 100.991 43.7962 100.71C43.3388 100.429 42.9837 100.036 42.7308 99.5298C42.478 99.0241 42.3516 98.4332 42.3516 97.7571C42.3516 97.0781 42.478 96.4844 42.7308 95.9759C42.9837 95.4673 43.3388 95.0724 43.7962 94.7912C44.2536 94.5099 44.7891 94.3693 45.4027 94.3693C46.0163 94.3693 46.5518 94.5099 47.0092 94.7912C47.4666 95.0724 47.8217 95.4673 48.0746 95.9759C48.3274 96.4844 48.4538 97.0781 48.4538 97.7571C48.4538 98.4332 48.3274 99.0241 48.0746 99.5298C47.8217 100.036 47.4666 100.429 47.0092 100.71C46.5518 100.991 46.0163 101.132 45.4027 101.132ZM45.407 100.062C45.8047 100.062 46.1342 99.9574 46.3956 99.7472C46.657 99.5369 46.8501 99.2571 46.9751 98.9077C47.103 98.5582 47.1669 98.1733 47.1669 97.7528C47.1669 97.3352 47.103 96.9517 46.9751 96.6023C46.8501 96.25 46.657 95.9673 46.3956 95.7543C46.1342 95.5412 45.8047 95.4347 45.407 95.4347C45.0064 95.4347 44.674 95.5412 44.4098 95.7543C44.1484 95.9673 43.9538 96.25 43.826 96.6023C43.701 96.9517 43.6385 97.3352 43.6385 97.7528C43.6385 98.1733 43.701 98.5582 43.826 98.9077C43.9538 99.2571 44.1484 99.5369 44.4098 99.7472C44.674 99.9574 45.0064 100.062 45.407 100.062Z" fill="white"/>
</svg>
