<svg width="68" height="79" viewBox="0 0 68 79" fill="none" xmlns="http://www.w3.org/2000/svg">
<path d="M46 12C46 18.6274 40.6274 37.5 34 37.5C27.3726 37.5 22 18.6274 22 12C22 5.37258 27.3726 0 34 0C40.6274 0 46 5.37258 46 12Z" fill="#46BD54"/>
<circle cx="34" cy="12" r="7" fill="white"/>
<rect y="42" width="68" height="37" rx="5" fill="#46BD54"/>
<path d="M15.0272 51.0298C14.9448 50.7713 14.834 50.5398 14.6948 50.3352C14.5584 50.1278 14.3951 49.9517 14.2047 49.8068C14.0144 49.6591 13.7971 49.5469 13.5527 49.4702C13.3113 49.3935 13.0456 49.3551 12.7559 49.3551C12.2644 49.3551 11.8212 49.4815 11.4263 49.7344C11.0314 49.9872 10.7189 50.358 10.4888 50.8466C10.2615 51.3324 10.1479 51.9276 10.1479 52.6321C10.1479 53.3395 10.263 53.9375 10.4931 54.4261C10.7232 54.9148 11.0385 55.2855 11.4391 55.5384C11.8397 55.7912 12.2956 55.9176 12.807 55.9176C13.2814 55.9176 13.6948 55.821 14.0471 55.6278C14.4022 55.4347 14.6763 55.1619 14.8695 54.8097C15.0655 54.4545 15.1635 54.0369 15.1635 53.5568L15.5044 53.6207H13.0073V52.5341H16.4377V53.527C16.4377 54.2599 16.2814 54.8963 15.9689 55.4361C15.6593 55.973 15.2303 56.3878 14.682 56.6804C14.1365 56.973 13.5115 57.1193 12.807 57.1193C12.0172 57.1193 11.324 56.9375 10.7275 56.5739C10.1337 56.2102 9.67063 55.6946 9.33825 55.027C9.00586 54.3565 8.83967 53.5611 8.83967 52.6406C8.83967 51.9446 8.93626 51.3196 9.12944 50.7656C9.32262 50.2116 9.59393 49.7415 9.94336 49.3551C10.2956 48.9659 10.709 48.669 11.1834 48.4645C11.6607 48.2571 12.182 48.1534 12.7473 48.1534C13.2189 48.1534 13.6578 48.223 14.0641 48.3622C14.4732 48.5014 14.8368 48.6989 15.155 48.9545C15.476 49.2102 15.7417 49.5142 15.9519 49.8665C16.1621 50.2159 16.3042 50.6037 16.378 51.0298H15.0272ZM18.0069 57V50.4545H19.2385V51.4943H19.3066C19.426 51.142 19.6362 50.8651 19.9373 50.6634C20.2413 50.4588 20.585 50.3565 20.9686 50.3565C21.0481 50.3565 21.1419 50.3594 21.2498 50.3651C21.3606 50.3707 21.4473 50.3778 21.5098 50.3864V51.6051C21.4586 51.5909 21.3677 51.5753 21.237 51.5582C21.1064 51.5384 20.9757 51.5284 20.845 51.5284C20.5439 51.5284 20.2754 51.5923 20.0396 51.7202C19.8066 51.8452 19.622 52.0199 19.4856 52.2443C19.3493 52.4659 19.2811 52.7187 19.2811 53.0028V57H18.0069ZM25.1351 57.1321C24.5215 57.1321 23.986 56.9915 23.5286 56.7102C23.0712 56.429 22.7161 56.0355 22.4632 55.5298C22.2104 55.0241 22.084 54.4332 22.084 53.7571C22.084 53.0781 22.2104 52.4844 22.4632 51.9759C22.7161 51.4673 23.0712 51.0724 23.5286 50.7912C23.986 50.5099 24.5215 50.3693 25.1351 50.3693C25.7488 50.3693 26.2843 50.5099 26.7417 50.7912C27.199 51.0724 27.5542 51.4673 27.807 51.9759C28.0598 52.4844 28.1863 53.0781 28.1863 53.7571C28.1863 54.4332 28.0598 55.0241 27.807 55.5298C27.5542 56.0355 27.199 56.429 26.7417 56.7102C26.2843 56.9915 25.7488 57.1321 25.1351 57.1321ZM25.1394 56.0625C25.5371 56.0625 25.8667 55.9574 26.128 55.7472C26.3894 55.5369 26.5826 55.2571 26.7076 54.9077C26.8354 54.5582 26.8993 54.1733 26.8993 53.7528C26.8993 53.3352 26.8354 52.9517 26.7076 52.6023C26.5826 52.25 26.3894 51.9673 26.128 51.7543C25.8667 51.5412 25.5371 51.4347 25.1394 51.4347C24.7388 51.4347 24.4064 51.5412 24.1422 51.7543C23.8809 51.9673 23.6863 52.25 23.5584 52.6023C23.4334 52.9517 23.3709 53.3352 23.3709 53.7528C23.3709 54.1733 23.4334 54.5582 23.5584 54.9077C23.6863 55.2571 23.8809 55.5369 24.1422 55.7472C24.4064 55.9574 24.7388 56.0625 25.1394 56.0625ZM32.4295 57.1321C31.7846 57.1321 31.2292 56.9943 30.7633 56.7188C30.3002 56.4403 29.9423 56.0497 29.6895 55.5469C29.4395 55.0412 29.3145 54.4489 29.3145 53.7699C29.3145 53.0994 29.4395 52.5085 29.6895 51.9972C29.9423 51.4858 30.2946 51.0866 30.7463 50.7997C31.2008 50.5128 31.7321 50.3693 32.34 50.3693C32.7093 50.3693 33.0673 50.4304 33.4139 50.5526C33.7605 50.6747 34.0716 50.8665 34.3471 51.1278C34.6227 51.3892 34.84 51.7287 34.9991 52.1463C35.1582 52.5611 35.2377 53.0653 35.2377 53.6591V54.1108H30.0346V53.1562H33.9892C33.9892 52.821 33.921 52.5241 33.7846 52.2656C33.6483 52.0043 33.4565 51.7983 33.2093 51.6477C32.965 51.4972 32.6781 51.4219 32.3485 51.4219C31.9906 51.4219 31.6781 51.5099 31.411 51.6861C31.1468 51.8594 30.9423 52.0866 30.7974 52.3679C30.6554 52.6463 30.5843 52.9489 30.5843 53.2756V54.0213C30.5843 54.4588 30.661 54.831 30.8145 55.1378C30.9707 55.4446 31.188 55.679 31.4664 55.8409C31.7449 56 32.0701 56.0795 32.4423 56.0795C32.6838 56.0795 32.9039 56.0455 33.1028 55.9773C33.3017 55.9062 33.4735 55.8011 33.6184 55.6619C33.7633 55.5227 33.8741 55.3509 33.9508 55.1463L35.1568 55.3636C35.0602 55.7187 34.8869 56.0298 34.6369 56.2969C34.3897 56.5611 34.0787 56.767 33.7037 56.9148C33.3315 57.0597 32.9068 57.1321 32.4295 57.1321ZM37.9256 53.1136V57H36.6515V50.4545H37.8745V51.5199H37.9554C38.106 51.1733 38.3418 50.8949 38.6628 50.6847C38.9867 50.4744 39.3944 50.3693 39.8858 50.3693C40.3319 50.3693 40.7225 50.4631 41.0577 50.6506C41.3929 50.8352 41.6529 51.1108 41.8375 51.4773C42.0222 51.8437 42.1145 52.2969 42.1145 52.8366V57H40.8404V52.9901C40.8404 52.5156 40.7168 52.1449 40.4696 51.8778C40.2225 51.608 39.883 51.473 39.4512 51.473C39.1557 51.473 38.8929 51.5369 38.6628 51.6648C38.4355 51.7926 38.2551 51.9801 38.1216 52.2273C37.9909 52.4716 37.9256 52.767 37.9256 53.1136ZM48.7282 52.0526L47.5733 52.2571C47.525 52.1094 47.4483 51.9687 47.3432 51.8352C47.2409 51.7017 47.1017 51.5923 46.9256 51.5071C46.7495 51.4219 46.5293 51.3793 46.2651 51.3793C45.9043 51.3793 45.6032 51.4602 45.3617 51.6222C45.1202 51.7812 44.9995 51.9872 44.9995 52.2401C44.9995 52.4588 45.0804 52.6349 45.2424 52.7685C45.4043 52.902 45.6657 53.0114 46.0265 53.0966L47.0662 53.3352C47.6685 53.4744 48.1174 53.6889 48.4128 53.9787C48.7083 54.2685 48.856 54.6449 48.856 55.108C48.856 55.5 48.7424 55.8494 48.5151 56.1562C48.2907 56.4602 47.9767 56.6989 47.5733 56.8722C47.1728 57.0455 46.7083 57.1321 46.1799 57.1321C45.4469 57.1321 44.8489 56.9759 44.3858 56.6634C43.9228 56.348 43.6387 55.9006 43.5336 55.321L44.7651 55.1335C44.8418 55.4545 44.9995 55.6974 45.2381 55.8622C45.4767 56.0241 45.7878 56.1051 46.1713 56.1051C46.589 56.1051 46.9228 56.0185 47.1728 55.8452C47.4228 55.669 47.5478 55.4545 47.5478 55.2017C47.5478 54.9972 47.4711 54.8253 47.3176 54.6861C47.1671 54.5469 46.9355 54.4418 46.623 54.3707L45.5151 54.1278C44.9043 53.9886 44.4526 53.767 44.16 53.4631C43.8702 53.1591 43.7253 52.7741 43.7253 52.3082C43.7253 51.9219 43.8333 51.5838 44.0492 51.294C44.2651 51.0043 44.5634 50.7784 44.9441 50.6165C45.3248 50.4517 45.7608 50.3693 46.2523 50.3693C46.9597 50.3693 47.5165 50.5227 47.9228 50.8295C48.329 51.1335 48.5975 51.5412 48.7282 52.0526ZM53.3123 50.4545V51.4773H49.737V50.4545H53.3123ZM50.6958 48.8864H51.97V55.0781C51.97 55.3253 52.0069 55.5114 52.0808 55.6364C52.1547 55.7585 52.2498 55.8423 52.3663 55.8878C52.4856 55.9304 52.6149 55.9517 52.7541 55.9517C52.8564 55.9517 52.9458 55.9446 53.0225 55.9304C53.0993 55.9162 53.1589 55.9048 53.2015 55.8963L53.4316 56.9489C53.3578 56.9773 53.2527 57.0057 53.1163 57.0341C52.9799 57.0653 52.8095 57.0824 52.6049 57.0852C52.2697 57.0909 51.9572 57.0312 51.6674 56.9062C51.3777 56.7812 51.1433 56.5881 50.9643 56.3267C50.7853 56.0653 50.6958 55.7372 50.6958 55.3423V48.8864ZM57.4725 57.1321C56.8276 57.1321 56.2722 56.9943 55.8063 56.7188C55.3432 56.4403 54.9853 56.0497 54.7324 55.5469C54.4824 55.0412 54.3574 54.4489 54.3574 53.7699C54.3574 53.0994 54.4824 52.5085 54.7324 51.9972C54.9853 51.4858 55.3375 51.0866 55.7892 50.7997C56.2438 50.5128 56.775 50.3693 57.383 50.3693C57.7523 50.3693 58.1103 50.4304 58.4569 50.5526C58.8034 50.6747 59.1145 50.8665 59.3901 51.1278C59.6657 51.3892 59.883 51.7287 60.0421 52.1463C60.2012 52.5611 60.2807 53.0653 60.2807 53.6591V54.1108H55.0776V53.1562H59.0321C59.0321 52.821 58.964 52.5241 58.8276 52.2656C58.6912 52.0043 58.4995 51.7983 58.2523 51.6477C58.008 51.4972 57.7211 51.4219 57.3915 51.4219C57.0336 51.4219 56.7211 51.5099 56.454 51.6861C56.1898 51.8594 55.9853 52.0866 55.8404 52.3679C55.6983 52.6463 55.6273 52.9489 55.6273 53.2756V54.0213C55.6273 54.4588 55.704 54.831 55.8574 55.1378C56.0137 55.4446 56.231 55.679 56.5094 55.8409C56.7878 56 57.1131 56.0795 57.4853 56.0795C57.7267 56.0795 57.9469 56.0455 58.1458 55.9773C58.3446 55.9062 58.5165 55.8011 58.6614 55.6619C58.8063 55.5227 58.9171 55.3509 58.9938 55.1463L60.1998 55.3636C60.1032 55.7187 59.9299 56.0298 59.6799 56.2969C59.4327 56.5611 59.1216 56.767 58.7466 56.9148C58.3745 57.0597 57.9498 57.1321 57.4725 57.1321ZM23.3272 74.4545V65.4545H24.5716V66.5156H24.6781C24.752 66.3793 24.8585 66.2216 24.9977 66.0426C25.1369 65.8636 25.3301 65.7074 25.5772 65.5739C25.8244 65.4375 26.1511 65.3693 26.5574 65.3693C27.0858 65.3693 27.5574 65.5028 27.9721 65.7699C28.3869 66.0369 28.7122 66.4219 28.948 66.9247C29.1866 67.4276 29.3059 68.0327 29.3059 68.7401C29.3059 69.4474 29.188 70.054 28.9522 70.5597C28.7164 71.0625 28.3926 71.4503 27.9806 71.723C27.5687 71.9929 27.0985 72.1278 26.5701 72.1278C26.1724 72.1278 25.8471 72.0611 25.5943 71.9276C25.3443 71.794 25.1483 71.6378 25.0062 71.4588C24.8642 71.2798 24.7548 71.1207 24.6781 70.9815H24.6014V74.4545H23.3272ZM24.5758 68.7273C24.5758 69.1875 24.6426 69.5909 24.7761 69.9375C24.9096 70.2841 25.1028 70.5554 25.3556 70.7514C25.6085 70.9446 25.9181 71.0412 26.2846 71.0412C26.6653 71.0412 26.9835 70.9403 27.2392 70.7386C27.4949 70.5341 27.688 70.2571 27.8187 69.9077C27.9522 69.5582 28.019 69.1648 28.019 68.7273C28.019 68.2955 27.9537 67.9077 27.823 67.5639C27.6951 67.2202 27.502 66.9489 27.2434 66.75C26.9877 66.5511 26.6681 66.4517 26.2846 66.4517C25.9153 66.4517 25.6028 66.5469 25.3471 66.7372C25.0943 66.9276 24.9025 67.1932 24.7718 67.5341C24.6412 67.875 24.5758 68.2727 24.5758 68.7273ZM32.6383 72.1449C32.2235 72.1449 31.8485 72.0682 31.5133 71.9148C31.1781 71.7585 30.9125 71.5327 30.7164 71.2372C30.5233 70.9418 30.4267 70.5795 30.4267 70.1506C30.4267 69.7812 30.4977 69.4773 30.6397 69.2386C30.7818 69 30.9735 68.8111 31.215 68.6719C31.4565 68.5327 31.7264 68.4276 32.0247 68.3565C32.323 68.2855 32.627 68.2315 32.9366 68.1946C33.3287 68.1491 33.6468 68.1122 33.8912 68.0838C34.1355 68.0526 34.313 68.0028 34.4238 67.9347C34.5346 67.8665 34.59 67.7557 34.59 67.6023V67.5724C34.59 67.2003 34.4849 66.9119 34.2747 66.7074C34.0673 66.5028 33.7576 66.4006 33.3457 66.4006C32.9167 66.4006 32.5787 66.4957 32.3315 66.6861C32.0872 66.8736 31.9181 67.0824 31.8244 67.3125L30.627 67.0398C30.769 66.642 30.9764 66.321 31.2491 66.0767C31.5247 65.8295 31.8414 65.6506 32.1994 65.5398C32.5574 65.4261 32.9338 65.3693 33.3287 65.3693C33.59 65.3693 33.867 65.4006 34.1596 65.4631C34.4551 65.5227 34.7306 65.6335 34.9863 65.7955C35.2449 65.9574 35.4565 66.1889 35.6213 66.4901C35.786 66.7884 35.8684 67.1761 35.8684 67.6534V72H34.6241V71.1051H34.573C34.4906 71.2699 34.367 71.4318 34.2022 71.5909C34.0375 71.75 33.8258 71.8821 33.5673 71.9872C33.3088 72.0923 32.9991 72.1449 32.6383 72.1449ZM32.9153 71.1222C33.2676 71.1222 33.5687 71.0526 33.8187 70.9134C34.0716 70.7741 34.2633 70.5923 34.394 70.3679C34.5275 70.1406 34.5943 69.8977 34.5943 69.6392V68.7955C34.5488 68.8409 34.4608 68.8835 34.3301 68.9233C34.2022 68.9602 34.0559 68.9929 33.8912 69.0213C33.7264 69.0469 33.5659 69.071 33.4096 69.0938C33.2534 69.1136 33.1227 69.1307 33.0176 69.1449C32.7704 69.1761 32.5446 69.2287 32.34 69.3026C32.1383 69.3764 31.9764 69.483 31.8542 69.6222C31.7349 69.7585 31.6752 69.9403 31.6752 70.1676C31.6752 70.483 31.7917 70.7216 32.0247 70.8835C32.2576 71.0426 32.5545 71.1222 32.9153 71.1222ZM39.4703 72.1449C39.0556 72.1449 38.6806 72.0682 38.3453 71.9148C38.0101 71.7585 37.7445 71.5327 37.5485 71.2372C37.3553 70.9418 37.2587 70.5795 37.2587 70.1506C37.2587 69.7812 37.3297 69.4773 37.4718 69.2386C37.6138 69 37.8056 68.8111 38.0471 68.6719C38.2885 68.5327 38.5584 68.4276 38.8567 68.3565C39.155 68.2855 39.459 68.2315 39.7686 68.1946C40.1607 68.1491 40.4789 68.1122 40.7232 68.0838C40.9675 68.0526 41.1451 68.0028 41.2559 67.9347C41.3667 67.8665 41.4221 67.7557 41.4221 67.6023V67.5724C41.4221 67.2003 41.3169 66.9119 41.1067 66.7074C40.8993 66.5028 40.5897 66.4006 40.1777 66.4006C39.7488 66.4006 39.4107 66.4957 39.1635 66.6861C38.9192 66.8736 38.7502 67.0824 38.6564 67.3125L37.459 67.0398C37.601 66.642 37.8084 66.321 38.0811 66.0767C38.3567 65.8295 38.6735 65.6506 39.0314 65.5398C39.3894 65.4261 39.7658 65.3693 40.1607 65.3693C40.4221 65.3693 40.699 65.4006 40.9917 65.4631C41.2871 65.5227 41.5627 65.6335 41.8184 65.7955C42.0769 65.9574 42.2885 66.1889 42.4533 66.4901C42.6181 66.7884 42.7005 67.1761 42.7005 67.6534V72H41.4561V71.1051H41.405C41.3226 71.2699 41.199 71.4318 41.0343 71.5909C40.8695 71.75 40.6578 71.8821 40.3993 71.9872C40.1408 72.0923 39.8311 72.1449 39.4703 72.1449ZM39.7473 71.1222C40.0996 71.1222 40.4007 71.0526 40.6507 70.9134C40.9036 70.7741 41.0953 70.5923 41.226 70.3679C41.3596 70.1406 41.4263 69.8977 41.4263 69.6392V68.7955C41.3809 68.8409 41.2928 68.8835 41.1621 68.9233C41.0343 68.9602 40.888 68.9929 40.7232 69.0213C40.5584 69.0469 40.3979 69.071 40.2417 69.0938C40.0854 69.1136 39.9547 69.1307 39.8496 69.1449C39.6025 69.1761 39.3766 69.2287 39.1721 69.3026C38.9703 69.3764 38.8084 69.483 38.6863 69.6222C38.5669 69.7585 38.5073 69.9403 38.5073 70.1676C38.5073 70.483 38.6238 70.7216 38.8567 70.8835C39.0897 71.0426 39.3865 71.1222 39.7473 71.1222ZM45.6717 63.2727V72H44.3975V63.2727H45.6717Z" fill="white"/>
</svg>
