<svg width="57" height="61" viewBox="0 0 57 61" fill="none" xmlns="http://www.w3.org/2000/svg">
<path d="M40 12C40 18.6274 34.6274 37.5 28 37.5C21.3726 37.5 16 18.6274 16 12C16 5.37258 21.3726 0 28 0C34.6274 0 40 5.37258 40 12Z" fill="#060F2B"/>
<circle cx="28" cy="12" r="7" fill="white"/>
<rect y="42" width="57" height="19" rx="5" fill="#060F2B"/>
<path d="M17.2855 47.2727H18.7812L21.0611 51.2401H21.1548L23.4347 47.2727H24.9304L21.7642 52.5739V56H20.4517V52.5739L17.2855 47.2727ZM27.7504 56.1321C27.1367 56.1321 26.6012 55.9915 26.1438 55.7102C25.6864 55.429 25.3313 55.0355 25.0785 54.5298C24.8256 54.0241 24.6992 53.4332 24.6992 52.7571C24.6992 52.0781 24.8256 51.4844 25.0785 50.9759C25.3313 50.4673 25.6864 50.0724 26.1438 49.7912C26.6012 49.5099 27.1367 49.3693 27.7504 49.3693C28.364 49.3693 28.8995 49.5099 29.3569 49.7912C29.8143 50.0724 30.1694 50.4673 30.4222 50.9759C30.6751 51.4844 30.8015 52.0781 30.8015 52.7571C30.8015 53.4332 30.6751 54.0241 30.4222 54.5298C30.1694 55.0355 29.8143 55.429 29.3569 55.7102C28.8995 55.9915 28.364 56.1321 27.7504 56.1321ZM27.7546 55.0625C28.1523 55.0625 28.4819 54.9574 28.7433 54.7472C29.0046 54.5369 29.1978 54.2571 29.3228 53.9077C29.4506 53.5582 29.5146 53.1733 29.5146 52.7528C29.5146 52.3352 29.4506 51.9517 29.3228 51.6023C29.1978 51.25 29.0046 50.9673 28.7433 50.7543C28.4819 50.5412 28.1523 50.4347 27.7546 50.4347C27.354 50.4347 27.0217 50.5412 26.7575 50.7543C26.4961 50.9673 26.3015 51.25 26.1737 51.6023C26.0487 51.9517 25.9862 52.3352 25.9862 52.7528C25.9862 53.1733 26.0487 53.5582 26.1737 53.9077C26.3015 54.2571 26.4961 54.5369 26.7575 54.7472C27.0217 54.9574 27.354 55.0625 27.7546 55.0625ZM36.37 53.2855V49.4545H37.6484V56H36.3956V54.8665H36.3274C36.1768 55.2159 35.9354 55.5071 35.603 55.7401C35.2734 55.9702 34.8629 56.0852 34.3714 56.0852C33.951 56.0852 33.5788 55.9929 33.255 55.8082C32.9339 55.6207 32.6811 55.3438 32.4964 54.9773C32.3146 54.6108 32.2237 54.1577 32.2237 53.6179V49.4545H33.4979V53.4645C33.4979 53.9105 33.6214 54.2656 33.8686 54.5298C34.1158 54.794 34.4368 54.9261 34.8317 54.9261C35.0703 54.9261 35.3075 54.8665 35.5433 54.7472C35.782 54.6278 35.9794 54.4474 36.1357 54.206C36.2947 53.9645 36.3729 53.6577 36.37 53.2855Z" fill="white"/>
</svg>
